<svg width="135" height="138" viewBox="0 0 135 138" fill="none" xmlns="http://www.w3.org/2000/svg">
<path d="M132 69C133.657 69 135.007 67.6558 134.937 66.0005C134.209 48.7914 127.238 32.4409 115.338 20.2096C102.748 7.26962 85.6735 1.38161e-06 67.8693 0C50.0652 -1.38161e-06 32.9902 7.26962 20.4008 20.2096C8.50087 32.4409 1.52996 48.7914 0.802044 66.0004C0.732024 67.6558 2.08179 69 3.73865 69H20.3753C22.0322 69 23.3653 67.6552 23.471 66.0017C24.1759 54.9673 28.7533 44.529 36.4073 36.6619C44.7516 28.0853 56.0688 23.267 67.8693 23.267C79.6699 23.267 90.9871 28.0853 99.3313 36.6619C106.985 44.529 111.563 54.9673 112.268 66.0017C112.373 67.6552 113.706 69 115.363 69H132Z" fill="#18077E"/>
<path d="M96.7421 9.99303C97.459 8.52794 96.8766 6.7517 95.3959 6.06749C85.8815 1.67084 75.4876 -0.391944 65.0384 0.061381C53.6155 0.556944 42.5051 4.04291 32.7604 10.1888C23.0156 16.3347 14.9594 24.9369 9.35557 35.1798C4.22914 44.5501 1.31037 55.0095 0.814525 65.7201C0.737915 67.3749 2.08193 68.724 3.73851 68.7309L20.5628 68.8015C22.2199 68.8085 23.5588 67.4691 23.6715 65.8158C24.1292 59.1035 26.0296 52.5654 29.2502 46.6787C32.9488 39.9183 38.2659 34.2409 44.6974 30.1846C51.1289 26.1283 58.4618 23.8276 66.0009 23.5005C72.5215 23.2176 79.0095 24.4193 85.005 27.0038C86.5503 27.6699 88.385 27.0724 89.1245 25.5609L96.7421 9.99303Z" fill="#665CDC"/>
</svg>
