<svg width="240" height="238" viewBox="0 0 240 238" fill="none" xmlns="http://www.w3.org/2000/svg">
<path d="M181 119C181 152.661 153.494 180 119.5 180C85.5055 180 58 152.661 58 119C58 85.3395 85.5055 58 119.5 58C153.494 58 181 85.3395 181 119Z" fill="#00555F" stroke="#30757D" stroke-width="8"/>
<mask id="path-2-inside-1_18_194" fill="white">
<path d="M80.3023 188.711C78.5397 191.679 79.5079 195.536 82.5949 197.08C92.7863 202.18 103.901 205.232 115.31 206.039C128.8 206.994 142.327 204.784 154.811 199.585C167.296 194.386 178.393 186.342 187.219 176.094C196.044 165.846 202.353 153.679 205.642 140.561C208.932 127.443 209.111 113.738 206.165 100.539C203.22 87.3393 197.231 75.0106 188.677 64.5357C180.123 54.0608 169.24 45.7294 156.895 40.2057C146.456 35.5346 135.216 32.9806 123.824 32.6675C120.374 32.5726 117.7 35.5162 117.854 38.9646C118.008 42.4131 120.931 45.0566 124.38 45.1932C133.823 45.5673 143.129 47.7403 151.79 51.6158C162.357 56.3441 171.673 63.4758 178.995 72.4424C186.318 81.409 191.444 91.9624 193.965 103.261C196.487 114.56 196.333 126.291 193.517 137.52C190.701 148.749 185.301 159.165 177.747 167.937C170.192 176.709 160.693 183.595 150.006 188.045C139.319 192.496 127.74 194.387 116.192 193.57C106.727 192.9 97.4977 190.425 88.9955 186.299C85.89 184.792 82.0649 185.743 80.3023 188.711Z"/>
</mask>
<path d="M80.3023 188.711C78.5397 191.679 79.5079 195.536 82.5949 197.08C92.7863 202.18 103.901 205.232 115.31 206.039C128.8 206.994 142.327 204.784 154.811 199.585C167.296 194.386 178.393 186.342 187.219 176.094C196.044 165.846 202.353 153.679 205.642 140.561C208.932 127.443 209.111 113.738 206.165 100.539C203.22 87.3393 197.231 75.0106 188.677 64.5357C180.123 54.0608 169.24 45.7294 156.895 40.2057C146.456 35.5346 135.216 32.9806 123.824 32.6675C120.374 32.5726 117.7 35.5162 117.854 38.9646C118.008 42.4131 120.931 45.0566 124.38 45.1932C133.823 45.5673 143.129 47.7403 151.79 51.6158C162.357 56.3441 171.673 63.4758 178.995 72.4424C186.318 81.409 191.444 91.9624 193.965 103.261C196.487 114.56 196.333 126.291 193.517 137.52C190.701 148.749 185.301 159.165 177.747 167.937C170.192 176.709 160.693 183.595 150.006 188.045C139.319 192.496 127.74 194.387 116.192 193.57C106.727 192.9 97.4977 190.425 88.9955 186.299C85.89 184.792 82.0649 185.743 80.3023 188.711Z" stroke="#30757D" stroke-width="28" mask="url(#path-2-inside-1_18_194)"/>
<mask id="path-3-inside-2_18_194" fill="white">
<path d="M113.105 38.1859C112.871 34.7419 109.884 32.1163 106.466 32.5973C96.2048 34.041 86.2677 37.3128 77.1323 42.274C66.1627 48.2312 56.6069 56.484 49.1165 66.4696C41.6261 76.4553 36.3773 87.9389 33.7281 100.137C31.5219 110.296 31.1617 120.752 32.6473 131.007C33.1422 134.423 36.4987 136.556 39.8705 135.816C43.2424 135.077 45.3487 131.745 44.8952 128.323C43.7699 119.831 44.1194 111.192 45.9441 102.79C48.2118 92.3485 52.7048 82.5185 59.1165 73.9708C65.5283 65.4231 73.7081 58.3587 83.098 53.2593C90.6534 49.1563 98.8493 46.4031 107.317 45.1069C110.729 44.5846 113.338 41.63 113.105 38.1859Z"/>
</mask>
<path d="M113.105 38.1859C112.871 34.7419 109.884 32.1163 106.466 32.5973C96.2048 34.041 86.2677 37.3128 77.1323 42.274C66.1627 48.2312 56.6069 56.484 49.1165 66.4696C41.6261 76.4553 36.3773 87.9389 33.7281 100.137C31.5219 110.296 31.1617 120.752 32.6473 131.007C33.1422 134.423 36.4987 136.556 39.8705 135.816C43.2424 135.077 45.3487 131.745 44.8952 128.323C43.7699 119.831 44.1194 111.192 45.9441 102.79C48.2118 92.3485 52.7048 82.5185 59.1165 73.9708C65.5283 65.4231 73.7081 58.3587 83.098 53.2593C90.6534 49.1563 98.8493 46.4031 107.317 45.1069C110.729 44.5846 113.338 41.63 113.105 38.1859Z" stroke="#5A8F95" stroke-width="28" mask="url(#path-3-inside-2_18_194)"/>
<mask id="path-4-inside-3_18_194" fill="white">
<path d="M40.6844 139.181C37.3474 140.064 35.3368 143.495 36.458 146.76C42.2577 163.648 53.1298 178.342 67.5833 188.827C70.3774 190.854 74.2465 189.935 76.0673 187.003C77.8882 184.07 76.9679 180.237 74.1985 178.176C62.4286 169.418 53.5113 157.366 48.5784 143.549C47.4177 140.298 44.0214 138.297 40.6844 139.181Z"/>
</mask>
<path d="M40.6844 139.181C37.3474 140.064 35.3368 143.495 36.458 146.76C42.2577 163.648 53.1298 178.342 67.5833 188.827C70.3774 190.854 74.2465 189.935 76.0673 187.003C77.8882 184.07 76.9679 180.237 74.1985 178.176C62.4286 169.418 53.5113 157.366 48.5784 143.549C47.4177 140.298 44.0214 138.297 40.6844 139.181Z" stroke="#94B5B8" stroke-width="28" mask="url(#path-4-inside-3_18_194)"/>
</svg>
