<svg width="192" height="114" viewBox="0 0 192 114" fill="none" xmlns="http://www.w3.org/2000/svg">
<path d="M0.276887 60L21.4768 49.8578C30.07 45.7467 40.3553 49.8197 43.8186 58.705C44.8945 61.4653 46.6981 63.8833 49.0376 65.7018L52.1232 68.1001C57.5064 72.2844 64.8631 72.8539 70.8152 69.5472L74.5001 67.5L91.2219 56.1148C92.0161 55.5741 92.7629 54.9669 93.4543 54.2997L105.997 42.1962L111.35 36.7032C112.411 35.6145 113.613 34.6734 114.925 33.905L117.419 32.4436C120.017 30.9221 122.972 30.1187 125.984 30.1154L128.075 30.1131C130.848 30.1101 133.581 30.7855 136.035 32.0805L143.701 36.1257L147.116 38.0098C148.793 38.9354 150.614 39.5711 152.503 39.8901L154.681 40.2582C155.624 40.4174 156.577 40.4969 157.533 40.4959L157.9 40.4955C160.627 40.4925 163.311 39.834 165.727 38.5754L166.139 38.3607C168.979 36.8815 171.342 34.6293 172.956 31.8635L189.365 3.73601L191.951 0.444617L190.099 112.815L0.276958 113.021L0.276887 60Z" fill="url(#paint0_linear_18_70)" fill-opacity="0.7"/>
<defs>
<linearGradient id="paint0_linear_18_70" x1="97.3537" y1="0.569127" x2="95.4245" y2="116.204" gradientUnits="userSpaceOnUse">
<stop stop-color="#676767" stop-opacity="0.67"/>
<stop offset="1" stop-color="#767070" stop-opacity="0"/>
</linearGradient>
</defs>
</svg>
