<svg width="51" height="37" viewBox="0 0 51 37" fill="none" xmlns="http://www.w3.org/2000/svg">
<path d="M18.8313 3.86499H32.3813V25.7763H18.8313V3.86499Z" fill="#FF5F00"/>
<path d="M9.66911 36.8051V34.4824C9.66911 33.5919 9.06676 33.0113 8.03429 33.0113C7.51816 33.0113 6.95892 33.1662 6.57172 33.6695C6.27074 33.2436 5.84063 33.0113 5.19536 33.0113C4.76506 33.0113 4.33514 33.1274 3.99086 33.5533V33.0888H3.08752V36.8051H3.99086V34.7533C3.99086 34.0954 4.37805 33.7855 4.98041 33.7855C5.58237 33.7855 5.88374 34.134 5.88374 34.7533V36.8051H6.78707V34.7533C6.78707 34.0954 7.21698 33.7855 7.77623 33.7855C8.37858 33.7855 8.67956 34.134 8.67956 34.7533V36.8051H9.66911ZM23.0468 33.0888H21.5845V31.9661H20.6811V33.0888H19.8638V33.8241H20.6809V35.5277C20.6809 36.3794 21.0681 36.8825 22.1006 36.8825C22.4878 36.8825 22.9177 36.7665 23.2191 36.6117L22.9608 35.9147C22.7028 36.0696 22.4018 36.1084 22.1866 36.1084C21.7565 36.1084 21.5845 35.8761 21.5845 35.4889V33.8241H23.0468V33.0888ZM30.7038 33.0112C30.1877 33.0112 29.8436 33.2436 29.6284 33.5533V33.0888H28.7251V36.8051H29.6284V34.7147C29.6284 34.0954 29.9294 33.7469 30.4887 33.7469C30.6607 33.7469 30.8758 33.7857 31.0479 33.8243L31.306 33.0501C31.1339 33.0113 30.8758 33.0113 30.7038 33.0113V33.0112ZM19.1325 33.3984C18.7022 33.1274 18.1001 33.0113 17.4548 33.0113C16.4225 33.0113 15.7344 33.4758 15.7344 34.2114C15.7344 34.8309 16.2505 35.1792 17.1538 35.2954L17.5839 35.3342C18.0572 35.4114 18.3152 35.5277 18.3152 35.7213C18.3152 35.9922 17.9711 36.1858 17.3688 36.1858C16.7666 36.1858 16.2934 35.9922 15.9922 35.7987L15.5621 36.418C16.0353 36.7277 16.6806 36.8825 17.3257 36.8825C18.5302 36.8825 19.2186 36.3794 19.2186 35.6825C19.2186 35.0244 18.6593 34.6759 17.7989 34.5599L17.3688 34.5211C16.9816 34.4823 16.6806 34.405 16.6806 34.1728C16.6806 33.9017 16.9816 33.7469 17.4548 33.7469C17.9711 33.7469 18.4873 33.9403 18.7453 34.0566L19.1325 33.3984ZM43.1355 33.0113C42.6192 33.0113 42.2751 33.2436 42.0599 33.5533V33.0888H41.1566V36.8051H42.0599V34.7147C42.0599 34.0954 42.3611 33.7469 42.9201 33.7469C43.0924 33.7469 43.3075 33.7857 43.4796 33.8243L43.7376 33.0501C43.5656 33.0113 43.3075 33.0113 43.1355 33.0113ZM31.6071 34.9469C31.6071 36.0696 32.4674 36.8825 33.801 36.8825C34.4032 36.8825 34.8333 36.7665 35.2634 36.4568L34.8333 35.7987C34.4892 36.0309 34.1451 36.147 33.7579 36.147C33.0266 36.147 32.5105 35.6825 32.5105 34.9469C32.5105 34.2502 33.0266 33.7855 33.7579 33.7469C34.1451 33.7469 34.4892 33.8629 34.8333 34.0954L35.2634 33.4372C34.8333 33.1274 34.4032 33.0113 33.801 33.0113C32.4674 33.0113 31.6071 33.8243 31.6071 34.9469ZM39.9523 34.9469V33.0888H39.0489V33.5533C38.7478 33.205 38.3177 33.0113 37.7584 33.0113C36.597 33.0113 35.6937 33.8243 35.6937 34.9469C35.6937 36.0696 36.597 36.8825 37.7584 36.8825C38.3606 36.8825 38.7909 36.6891 39.0489 36.3406V36.8051H39.9523V34.9469ZM36.6399 34.9469C36.6399 34.2888 37.1131 33.7469 37.8873 33.7469C38.6186 33.7469 39.135 34.2502 39.135 34.9469C39.135 35.6051 38.6186 36.147 37.8873 36.147C37.1131 36.1082 36.6399 35.6051 36.6399 34.9469ZM25.8431 33.0113C24.6385 33.0113 23.7781 33.7855 23.7781 34.9469C23.7781 36.1084 24.6384 36.8825 25.886 36.8825C26.4881 36.8825 27.0905 36.7277 27.5637 36.3794L27.1334 35.7987C26.7893 36.0309 26.3592 36.1858 25.9291 36.1858C25.3698 36.1858 24.8106 35.9535 24.6815 35.2952H27.7357V34.9857C27.7789 33.7855 27.0045 33.0113 25.8429 33.0113H25.8431ZM25.8431 33.7081C26.4021 33.7081 26.7895 34.0179 26.8753 34.5987H24.7246C24.8106 34.0954 25.1978 33.7081 25.8431 33.7081ZM48.2543 34.9469V31.6177H47.351V33.5533C47.0498 33.205 46.6197 33.0113 46.0604 33.0113C44.899 33.0113 43.9957 33.8243 43.9957 34.9469C43.9957 36.0696 44.899 36.8825 46.0604 36.8825C46.6628 36.8825 47.0929 36.6891 47.351 36.3406V36.8051H48.2543V34.9469ZM44.9422 34.9469C44.9422 34.2888 45.4152 33.7469 46.1896 33.7469C46.9209 33.7469 47.437 34.2502 47.437 34.9469C47.437 35.6051 46.9209 36.147 46.1896 36.147C45.4152 36.1082 44.9422 35.6051 44.9422 34.9469ZM14.7448 34.9469V33.0888H13.8415V33.5533C13.5403 33.205 13.1102 33.0113 12.551 33.0113C11.3896 33.0113 10.4862 33.8243 10.4862 34.9469C10.4862 36.0696 11.3896 36.8825 12.551 36.8825C13.1533 36.8825 13.5834 36.6891 13.8415 36.3406V36.8051H14.7448V34.9469ZM11.3896 34.9469C11.3896 34.2888 11.8628 33.7469 12.637 33.7469C13.3683 33.7469 13.8846 34.2502 13.8846 34.9469C13.8846 35.6051 13.3683 36.147 12.637 36.147C11.8628 36.1082 11.3896 35.6051 11.3896 34.9469Z" fill="white"/>
<path d="M19.6915 14.8207C19.6915 10.3688 22.0143 6.42006 25.5845 3.86496C22.9608 2.00678 19.6486 0.884155 16.0353 0.884155C7.4748 0.884155 0.549316 7.1168 0.549316 14.8207C0.549316 22.5245 7.4748 28.7573 16.0351 28.7573C19.6484 28.7573 22.9606 27.6347 25.5845 25.7763C22.0143 23.26 19.6915 19.2726 19.6915 14.8207Z" fill="#EB001B"/>
<path d="M50.6625 14.8207C50.6625 22.5245 43.7371 28.7573 35.1768 28.7573C31.5634 28.7573 28.2513 27.6347 25.6273 25.7763C29.2406 23.2214 31.5205 19.2726 31.5205 14.8207C31.5205 10.3688 29.1975 6.42006 25.6273 3.86496C28.2511 2.00678 31.5634 0.884155 35.1768 0.884155C43.7371 0.884155 50.6627 7.1556 50.6627 14.8207H50.6625Z" fill="#F79E1B"/>
</svg>
