<svg width="24" height="24" viewBox="0 0 24 24" fill="none" xmlns="http://www.w3.org/2000/svg">
<g clip-path="url(#clip0_128_2975)">
<path d="M20.6612 19.3765C10.946 24.0001 4.91668 20.1317 1.05711 17.782C0.818283 17.634 0.412358 17.8167 0.764554 18.2212C2.05037 19.7803 6.26426 23.5381 11.7646 23.5381C17.2687 23.5381 20.5432 20.5348 20.9528 20.0109C21.3597 19.4914 21.0723 19.2049 20.6611 19.3765H20.6612ZM23.3897 17.8697C23.1288 17.5299 21.8032 17.4666 20.9691 17.5691C20.1336 17.6686 18.8795 18.1792 18.9885 18.4858C19.0445 18.6006 19.1587 18.5491 19.7326 18.4975C20.3081 18.4401 21.9204 18.2366 22.2563 18.6758C22.5939 19.118 21.7421 21.2245 21.5866 21.5643C21.4363 21.904 21.644 21.9916 21.9263 21.7653C22.2047 21.5391 22.7088 20.9534 23.0471 20.1245C23.383 19.291 23.588 18.1283 23.3897 17.8697Z" fill="#FF9900"/>
<path fill-rule="evenodd" clip-rule="evenodd" d="M14.1288 9.94198C14.1288 11.1551 14.1595 12.1669 13.5463 13.2442C13.0514 14.1202 12.2674 14.6589 11.3915 14.6589C10.1957 14.6589 9.49939 13.7479 9.49939 12.4034C9.49939 9.74922 11.8775 9.2675 14.1288 9.2675V9.94198ZM17.269 17.5321C17.0632 17.716 16.7653 17.7292 16.5332 17.6065C15.4996 16.7481 15.3157 16.3495 14.7463 15.5305C13.0382 17.2737 11.8294 17.7948 9.61331 17.7948C6.99423 17.7948 4.95325 16.1787 4.95325 12.9421C4.95325 10.415 6.32418 8.69374 8.27303 7.85291C9.96366 7.10826 12.3243 6.97689 14.1288 6.77111V6.36814C14.1288 5.62793 14.1857 4.75201 13.7521 4.11261C13.3711 3.53885 12.644 3.30233 12.0045 3.30233C10.8177 3.30233 9.75779 3.91108 9.49939 5.17243C9.44677 5.4528 9.24099 5.72874 8.96071 5.74185L5.93866 5.41782C5.68469 5.36076 5.40441 5.15498 5.47448 4.76512C6.17084 1.10376 9.47742 0 12.4381 0C13.9535 0 15.9331 0.402971 17.1288 1.55049C18.6442 2.96509 18.4996 4.85273 18.4996 6.90682V11.7596C18.4996 13.218 19.104 13.8574 19.6734 14.6458C19.8748 14.9261 19.9187 15.2634 19.6646 15.4735C19.0295 16.0034 17.8996 16.9889 17.2777 17.5408L17.2689 17.5321" fill="#2C2C2C"/>
<path d="M20.6612 19.3765C10.946 24.0001 4.91668 20.1317 1.05711 17.782C0.818283 17.634 0.412358 17.8167 0.764554 18.2212C2.05037 19.7803 6.26426 23.5381 11.7646 23.5381C17.2687 23.5381 20.5432 20.5348 20.9528 20.0109C21.3597 19.4914 21.0723 19.2049 20.6611 19.3765H20.6612ZM23.3897 17.8697C23.1288 17.5299 21.8032 17.4666 20.9691 17.5691C20.1336 17.6686 18.8795 18.1792 18.9885 18.4858C19.0445 18.6006 19.1587 18.5491 19.7326 18.4975C20.3081 18.4401 21.9204 18.2366 22.2563 18.6758C22.5939 19.118 21.7421 21.2245 21.5866 21.5643C21.4363 21.904 21.644 21.9916 21.9263 21.7653C22.2047 21.5391 22.7088 20.9534 23.0471 20.1245C23.383 19.291 23.588 18.1283 23.3897 17.8697Z" fill="#FF9900"/>
<path fill-rule="evenodd" clip-rule="evenodd" d="M14.1288 9.94198C14.1288 11.1551 14.1595 12.1669 13.5463 13.2442C13.0514 14.1202 12.2674 14.6589 11.3915 14.6589C10.1957 14.6589 9.49939 13.7479 9.49939 12.4034C9.49939 9.74922 11.8775 9.2675 14.1288 9.2675V9.94198ZM17.269 17.5321C17.0632 17.716 16.7653 17.7292 16.5332 17.6065C15.4996 16.7481 15.3157 16.3495 14.7463 15.5305C13.0382 17.2737 11.8294 17.7948 9.61331 17.7948C6.99423 17.7948 4.95325 16.1787 4.95325 12.9421C4.95325 10.415 6.32418 8.69374 8.27303 7.85291C9.96366 7.10826 12.3243 6.97689 14.1288 6.77111V6.36814C14.1288 5.62793 14.1857 4.75201 13.7521 4.11261C13.3711 3.53885 12.644 3.30233 12.0045 3.30233C10.8177 3.30233 9.75779 3.91108 9.49939 5.17243C9.44677 5.4528 9.24099 5.72874 8.96071 5.74185L5.93866 5.41782C5.68469 5.36076 5.40441 5.15498 5.47448 4.76512C6.17084 1.10376 9.47742 0 12.4381 0C13.9535 0 15.9331 0.402971 17.1288 1.55049C18.6442 2.96509 18.4996 4.85273 18.4996 6.90682V11.7596C18.4996 13.218 19.104 13.8574 19.6734 14.6458C19.8748 14.9261 19.9187 15.2634 19.6646 15.4735C19.0295 16.0034 17.8996 16.9889 17.2777 17.5408L17.2689 17.5321" fill="#2C2C2C"/>
</g>
<defs>
<clipPath id="clip0_128_2975">
<rect width="24" height="24" fill="white"/>
</clipPath>
</defs>
</svg>
