<svg width="44" height="45" viewBox="0 0 44 45" fill="none" xmlns="http://www.w3.org/2000/svg">
<path d="M6.19736 42.8068C3.50327 40.0271 1.93582 36.3471 1.79822 32.4785C1.66062 28.61 2.96266 24.8279 5.45245 21.8639C7.94224 18.8998 11.4428 16.9645 15.2771 16.4323C19.1113 15.9001 23.0066 16.8089 26.2096 18.9827L29.5638 22.0581C30.3329 23.0018 30.9892 24.0321 31.5193 25.1281L30.3512 40.7431C29.8492 41.4775 29.2858 42.1678 28.6669 42.8068H6.19736Z" fill="#2D9739"/>
<path d="M31.5193 25.1281C30.9892 24.0321 30.3329 23.0018 29.5638 22.0581L26.2096 18.982L26.1505 18.9419C24.1742 17.6242 21.8521 16.921 19.4768 16.921C17.1015 16.921 14.7793 17.6242 12.8031 18.9419C10.9024 20.2167 9.30458 21.8932 8.12255 23.8529C6.94051 25.8127 6.20302 28.008 5.96212 30.2839C5.72122 32.5599 5.98279 34.8609 6.72836 37.0247C7.47393 39.1885 8.68534 41.1623 10.2771 42.8067H28.6669C29.2858 42.1678 29.8492 41.4775 30.3512 40.7431L31.5193 25.1281Z" fill="#44BC59"/>
<path d="M30.6728 23.6057C30.3348 23.0679 29.9645 22.5511 29.5638 22.0581L28.0632 20.6819C27.3409 21.1752 26.5576 21.5726 25.733 21.8643L22.7603 22.8775C22.5931 22.9359 22.4483 23.0453 22.3464 23.1901C22.2445 23.335 22.1904 23.5081 22.1918 23.6852V28.3565C22.1888 28.5056 22.2259 28.6527 22.2993 28.7825C22.3728 28.9123 22.4798 29.02 22.6091 29.0942C22.7384 29.1684 22.8854 29.2064 23.0345 29.2042C23.1836 29.2021 23.3294 29.1599 23.4565 29.082L26.4435 27.2149C28.0173 26.2185 29.4414 25.0032 30.6728 23.6057Z" fill="#2D9739"/>
<path d="M20.832 13.569H14.0325C13.2815 13.569 12.6726 14.1778 12.6726 14.9289C12.6726 15.6799 13.2815 16.2888 14.0325 16.2888H20.832C21.583 16.2888 22.1919 15.6799 22.1919 14.9289C22.1919 14.1778 21.583 13.569 20.832 13.569Z" fill="#FFC239"/>
<path d="M17.4321 38.0471C21.9384 38.0471 25.5915 34.394 25.5915 29.8877C25.5915 25.3814 21.9384 21.7284 17.4321 21.7284C12.9258 21.7284 9.27271 25.3814 9.27271 29.8877C9.27271 34.394 12.9258 38.0471 17.4321 38.0471Z" fill="#ABE4A3"/>
<path d="M17.4321 21.7283C15.8503 21.7271 14.3027 22.1884 12.9798 23.0556C11.9539 24.6228 11.4989 26.4954 11.6913 28.3585C11.8837 30.2217 12.7118 31.9618 14.0362 33.2863C15.3607 34.6107 17.1008 35.4388 18.964 35.6312C20.8272 35.8236 22.6998 35.3686 24.2669 34.3427C25.0714 33.112 25.5282 31.6866 25.5888 30.2175C25.6493 28.7484 25.3115 27.2902 24.611 25.9974C23.9106 24.7046 22.8735 23.6253 21.6097 22.8738C20.346 22.1223 18.9024 21.7265 17.4321 21.7283Z" fill="#CDF8C8"/>
<path d="M14.0325 13.569L12.1422 10.1693C11.6764 9.03918 12.3115 7.44946 13.3525 7.44946H21.5119C22.5529 7.44946 23.188 9.03918 22.7222 10.1693L20.8319 13.569H14.0325Z" fill="#2D9739"/>
<path d="M17.4322 29.2078C17.1632 29.2078 16.9003 29.128 16.6767 28.9786C16.453 28.8292 16.2787 28.6168 16.1758 28.3683C16.0729 28.1198 16.046 27.8464 16.0984 27.5826C16.1509 27.3188 16.2804 27.0765 16.4706 26.8863C16.6608 26.6961 16.9031 26.5666 17.1669 26.5141C17.4307 26.4617 17.7041 26.4886 17.9526 26.5915C18.2011 26.6944 18.4135 26.8687 18.5629 27.0924C18.7123 27.316 18.7921 27.5789 18.7921 27.8479H20.152C20.1497 27.2467 19.9483 26.6631 19.5793 26.1885C19.2102 25.7139 18.6943 25.375 18.1121 25.2246V24.4482H16.7522V25.2246C16.112 25.3894 15.5539 25.7822 15.1827 26.3293C14.8115 26.8764 14.6527 27.5402 14.7362 28.196C14.8196 28.8518 15.1396 29.4547 15.636 29.8913C16.1324 30.328 16.7711 30.5685 17.4322 30.5677C17.7012 30.5677 17.9641 30.6474 18.1877 30.7969C18.4113 30.9463 18.5856 31.1587 18.6886 31.4072C18.7915 31.6557 18.8184 31.9291 18.766 32.1929C18.7135 32.4567 18.584 32.699 18.3938 32.8892C18.2036 33.0794 17.9613 33.2089 17.6975 33.2613C17.4337 33.3138 17.1603 33.2869 16.9118 33.184C16.6633 33.081 16.4509 32.9067 16.3015 32.6831C16.1521 32.4595 16.0723 32.1965 16.0723 31.9276H14.7124C14.7147 32.5288 14.9161 33.1123 15.2851 33.5869C15.6542 34.0616 16.1701 34.4005 16.7522 34.5508V35.3273H18.1121V34.5508C18.7524 34.386 19.3105 33.9932 19.6817 33.4461C20.0529 32.8991 20.2117 32.2353 20.1282 31.5795C20.0447 30.9236 19.7248 30.3208 19.2284 29.8841C18.732 29.4475 18.0933 29.207 17.4322 29.2078Z" fill="#2D9739"/>
<path d="M42.5903 42.1268H1.79346V43.4867H42.5903V42.1268Z" fill="#FFC239"/>
<path d="M28.3113 29.8877H25.5916V40.7669H28.3113V29.8877Z" fill="#FFC239"/>
<path d="M33.0709 25.1281H30.3511V40.7669H33.0709V25.1281Z" fill="#FFC239"/>
<path d="M37.8306 20.3685H35.1108V40.7669H37.8306V20.3685Z" fill="#FFC239"/>
<path d="M25.3385 27.905C24.8791 26.0725 23.7976 24.4565 22.2788 23.333C22.2254 23.4429 22.1964 23.5631 22.1938 23.6852V28.3565C22.1907 28.5056 22.2279 28.6527 22.3013 28.7825C22.3747 28.9123 22.4817 29.02 22.6111 29.0942C22.7404 29.1684 22.8873 29.2064 23.0364 29.2043C23.1855 29.2021 23.3313 29.1599 23.4585 29.082L25.3385 27.905Z" fill="#ABE4A3"/>
<path d="M42.5902 16.2888H39.8704V40.7669H42.5902V16.2888Z" fill="#FFC239"/>
<path d="M23.5516 32.6075H20.8318V40.7669H23.5516V32.6075Z" fill="#FFC239"/>
<path d="M14.0324 13.569C13.7999 13.5704 13.5717 13.632 13.3701 13.7478C13.4133 14.0737 13.5731 14.3728 13.8199 14.5899C14.0666 14.8071 14.3837 14.9275 14.7123 14.9289H21.5118C21.7443 14.9275 21.9725 14.8659 22.1741 14.7501C22.1309 14.4242 21.9711 14.1251 21.7243 13.908C21.4776 13.6908 21.1605 13.5704 20.8319 13.569H14.0324Z" fill="#FFD55D"/>
<path d="M22.7222 10.1693C23.188 9.03918 22.5529 7.44946 21.5119 7.44946H14.4656C14.3022 7.44613 14.1403 7.48241 13.9939 7.55521C13.8475 7.628 13.7209 7.73515 13.6249 7.86749C13.5289 7.99984 13.4664 8.15345 13.4426 8.31521C13.4189 8.47698 13.4346 8.64208 13.4885 8.79644L13.494 8.80936L14.501 10.6207C14.769 11.1026 15.161 11.504 15.6363 11.7832C16.1117 12.0625 16.6531 12.2096 17.2045 12.2091H21.5881L22.7222 10.1693Z" fill="#44BC59"/>
<path d="M22.1919 32.6075V38.7271C22.1919 39.0877 22.3352 39.4336 22.5902 39.6887C22.8452 39.9437 23.1911 40.087 23.5518 40.087V32.6075H22.1919Z" fill="#FFD55D"/>
<path d="M26.9514 29.8877V38.7271C26.9514 39.0877 27.0947 39.4336 27.3497 39.6887C27.6047 39.9437 27.9506 40.087 28.3113 40.087V29.8877H26.9514Z" fill="#FFD55D"/>
<path d="M31.7109 25.1281V38.7271C31.7109 39.0877 31.8542 39.4336 32.1092 39.6887C32.3643 39.9437 32.7102 40.087 33.0708 40.087V25.1281H31.7109Z" fill="#FFD55D"/>
<path d="M36.4707 20.3685V38.7271C36.4707 39.0877 36.614 39.4336 36.869 39.6887C37.124 39.9437 37.4699 40.087 37.8306 40.087V20.3685H36.4707Z" fill="#FFD55D"/>
<path d="M41.2302 16.2888V38.7271C41.2302 39.0877 41.3735 39.4336 41.6285 39.6887C41.8836 39.9437 42.2295 40.087 42.5901 40.087V16.2888H41.2302Z" fill="#FFD55D"/>
<path d="M40.8938 10.3521C40.9271 10.4687 40.9285 10.592 40.8981 10.7094C40.8677 10.8267 40.8064 10.9338 40.7207 11.0195C40.635 11.1052 40.528 11.1665 40.4106 11.1969C40.2933 11.2273 40.1699 11.2258 40.0534 11.1926L36.4707 10.1692C34.7573 15.8652 31.416 21.4033 26.4435 24.5107L23.4565 26.3778C23.3294 26.4557 23.1836 26.4979 23.0345 26.5001C22.8854 26.5022 22.7384 26.4642 22.6091 26.39C22.4798 26.3158 22.3728 26.2082 22.2993 26.0784C22.2259 25.9486 22.1888 25.8014 22.1918 25.6523V20.9804C22.1907 20.8035 22.2449 20.6307 22.3468 20.4861C22.4487 20.3415 22.5933 20.2324 22.7603 20.174L25.733 19.1609C29.7107 17.8057 33.6088 13.6941 34.4309 9.48929L31.399 7.97369C31.2924 7.92042 31.2017 7.84008 31.1359 7.74071C31.0702 7.64134 31.0317 7.52644 31.0243 7.40751C31.0169 7.28858 31.041 7.16981 31.094 7.06308C31.1469 6.95636 31.227 6.86543 31.3262 6.79942L37.7348 2.52662C37.8238 2.46727 37.9256 2.42978 38.0319 2.41719C38.1381 2.40461 38.2459 2.41728 38.3463 2.45419C38.4468 2.4911 38.5371 2.55119 38.61 2.62959C38.6828 2.70799 38.7361 2.80247 38.7656 2.90535L40.8938 10.3521Z" fill="#F3A606"/>
<path d="M23.4565 24.6154L26.4435 22.7483C31.0624 19.8619 34.2738 14.8772 36.0811 9.61712C36.1954 9.29105 36.4303 9.02119 36.7376 8.86309C37.0448 8.70498 37.4009 8.67066 37.7327 8.76718L40.0534 9.43013C40.1462 9.45698 40.2438 9.46335 40.3394 9.44879C40.4349 9.43423 40.5262 9.3991 40.6068 9.34582L38.7655 2.90535C38.7361 2.80247 38.6828 2.70799 38.6099 2.62959C38.5371 2.55119 38.4468 2.4911 38.3463 2.45419C38.2459 2.41728 38.1381 2.40461 38.0319 2.41719C37.9256 2.42978 37.8238 2.46727 37.7347 2.52662L31.3262 6.79942C31.227 6.86543 31.1469 6.95636 31.0939 7.06308C31.0409 7.16981 31.0169 7.28858 31.0243 7.40751C31.0317 7.52644 31.0702 7.64134 31.1359 7.74071C31.2017 7.84008 31.2924 7.92042 31.399 7.97369L34.4309 9.48929C33.6088 13.6941 29.7107 17.8057 25.733 19.1615L22.7602 20.1747C22.5934 20.233 22.4489 20.342 22.347 20.4865C22.2451 20.631 22.1908 20.8036 22.1918 20.9804V23.8906C22.1889 24.0396 22.2261 24.1867 22.2996 24.3164C22.3731 24.4461 22.4801 24.5536 22.6094 24.6277C22.7387 24.7019 22.8856 24.7398 23.0346 24.7377C23.1837 24.7355 23.3294 24.6933 23.4565 24.6154Z" fill="#FFC239"/>
</svg>
