<svg width="13" height="13" viewBox="0 0 13 13" fill="none" xmlns="http://www.w3.org/2000/svg">
<g clip-path="url(#clip0_128_2504)">
<path d="M6.43099 3.58404C7.36087 3.58404 8.11468 2.83023 8.11468 1.90036C8.11468 0.970484 7.36087 0.216675 6.43099 0.216675C5.50112 0.216675 4.74731 0.970484 4.74731 1.90036C4.74731 2.83023 5.50112 3.58404 6.43099 3.58404Z" fill="#8A94A6"/>
<path d="M6.43099 8.11699C7.36087 8.11699 8.11468 7.36319 8.11468 6.43331C8.11468 5.50344 7.36087 4.74963 6.43099 4.74963C5.50112 4.74963 4.74731 5.50344 4.74731 6.43331C4.74731 7.36319 5.50112 8.11699 6.43099 8.11699Z" fill="#8A94A6"/>
<path d="M6.43099 12.65C7.36087 12.65 8.11468 11.8961 8.11468 10.9663C8.11468 10.0364 7.36087 9.28259 6.43099 9.28259C5.50112 9.28259 4.74731 10.0364 4.74731 10.9663C4.74731 11.8961 5.50112 12.65 6.43099 12.65Z" fill="#8A94A6"/>
</g>
<defs>
<clipPath id="clip0_128_2504">
<rect width="12.4333" height="12.4333" fill="white" transform="translate(0.214355 0.216675)"/>
</clipPath>
</defs>
</svg>
