<svg width="28" height="27" viewBox="0 0 28 27" fill="none" xmlns="http://www.w3.org/2000/svg">
<path fill-rule="evenodd" clip-rule="evenodd" d="M14.0215 20.1975C17.9502 20.1975 21.135 17.1893 21.135 13.4784C21.135 9.76754 17.9502 6.75928 14.0215 6.75928C10.0928 6.75928 6.90796 9.76754 6.90796 13.4784C6.90796 17.1893 10.0928 20.1975 14.0215 20.1975Z" fill="#C31815"/>
<path opacity="0.8" fill-rule="evenodd" clip-rule="evenodd" d="M14.0215 23.0772C19.6339 23.0772 24.1837 18.7797 24.1837 13.4784C24.1837 8.17715 19.6339 3.87964 14.0215 3.87964C8.40913 3.87964 3.85938 8.17715 3.85938 13.4784C3.85938 18.7797 8.40913 23.0772 14.0215 23.0772Z" stroke="#C31815" stroke-width="0.5"/>
<path opacity="0.4" fill-rule="evenodd" clip-rule="evenodd" d="M14.0218 25.9568C21.318 25.9568 27.2327 20.37 27.2327 13.4784C27.2327 6.58677 21.318 1 14.0218 1C6.72572 1 0.811035 6.58677 0.811035 13.4784C0.811035 20.37 6.72572 25.9568 14.0218 25.9568Z" stroke="#C31815" stroke-width="0.5"/>
</svg>
