<svg width="21" height="18" viewBox="0 0 21 18" fill="none" xmlns="http://www.w3.org/2000/svg">
<path fill-rule="evenodd" clip-rule="evenodd" d="M2.75 18.0002C1.23121 18.0002 0 16.6569 0 15.0002V10.0002C0 9.99117 0 9.98213 0 9.97432V9.97432C0 9.96626 0 9.95943 0 9.95137V9.95137C0 9.94332 0 9.93526 0 9.92745V9.92745V9.9045V9.9045V9.8796V9.8796V9.85665V9.85665V9.83467V9.82857V9.80953V9.80147V9.78438V9.77339V9.76045V9.74654V9.73751L0.00458781 9.71944V9.71944C0.0149943 9.68306 0.0272191 9.64717 0.0412623 9.61251L3.22117 1.8044C3.66216 0.697222 4.66849 -0.0137154 5.77496 0.000200665H14.3917C15.4803 -0.000531757 16.4669 0.699175 16.9079 1.78511L20.0796 9.57222C20.1388 9.70577 20.1701 9.85201 20.1712 10.0002V15.0002C20.1712 16.6569 18.94 18.0002 17.4212 18.0002H2.75ZM1.83335 15.0002C1.83335 15.5524 2.24376 16.0002 2.75001 16.0002H17.4167C17.9229 16.0002 18.3333 15.5524 18.3333 15.0002V11.0002H14.2404L12.6821 13.5542C12.5117 13.8335 12.2243 14.0009 11.9167 14.0002H8.25001C7.94339 14 7.65718 13.8327 7.48732 13.5542L5.929 11.0002H1.83335V15.0002ZM6.41671 9.0002C6.72364 8.99996 7.01027 9.16744 7.1803 9.44625L8.73864 12.0012H11.4245L12.9828 9.44625C13.1535 9.16622 13.4418 8.99874 13.75 9.0002H17.8402L15.2314 2.6003C15.0844 2.23824 14.7555 2.00508 14.3926 2.00533H5.77595C5.41307 2.00508 5.08417 2.23824 4.9372 2.6003L2.32928 9.0002H6.41671Z" fill="black"/>
</svg>
