<svg width="26" height="24" viewBox="0 0 26 24" fill="none" xmlns="http://www.w3.org/2000/svg">
<path d="M9.80096 11.5L11.8431 13.5L16.438 8.99999M21.0328 12C21.0328 16.9084 15.566 20.4784 13.5769 21.6149C13.3508 21.744 13.2378 21.8086 13.0783 21.8421C12.9545 21.8681 12.7739 21.8681 12.6501 21.8421C12.4906 21.8086 12.3776 21.744 12.1515 21.6149C10.1624 20.4784 4.69556 16.9084 4.69556 12V7.21759C4.69556 6.41808 4.69556 6.01833 4.82907 5.6747C4.94702 5.37113 5.13869 5.10027 5.3875 4.88552C5.66915 4.64243 6.05135 4.50207 6.81573 4.22134L12.2906 2.21067C12.5028 2.13271 12.609 2.09373 12.7182 2.07827C12.815 2.06457 12.9134 2.06457 13.0102 2.07827C13.1194 2.09373 13.2256 2.13271 13.4378 2.21067L18.9127 4.22134C19.6771 4.50207 20.0592 4.64243 20.3409 4.88552C20.5897 5.10027 20.7814 5.37113 20.8993 5.6747C21.0328 6.01833 21.0328 6.41808 21.0328 7.21759V12Z" stroke="black" stroke-width="2" stroke-linecap="round" stroke-linejoin="round"/>
</svg>
