<svg width="24" height="24" viewBox="0 0 24 24" fill="none" xmlns="http://www.w3.org/2000/svg">
<g clip-path="url(#clip0_128_2778)">
<path d="M18.613 22.292V23.7597H19.0837V22.7825H20.7967V23.7597H21.267V22.2946L18.613 22.292ZM19.0312 21.8173H20.841C21.0924 21.7673 21.2793 21.5455 21.332 21.3309H18.5403C18.5924 21.5455 18.7821 21.7673 19.0312 21.8173ZM17.1875 23.7606C17.4248 23.66 17.5525 23.486 17.6014 23.2824H15.4904L15.4917 21.3321L15.0185 21.3334V23.7606H17.1875ZM11.4995 21.8107H13.1709C13.4229 21.7375 13.6345 21.5455 13.6861 21.3328H11.031V22.7671H13.2041V23.2705L11.4995 23.2718C11.2324 23.3463 11.0059 23.5257 10.8929 23.7626L11.031 23.76H13.671V22.2902H11.4995V21.8107ZM7.37337 21.8153H9.18256C9.43427 21.7652 9.62135 21.5435 9.67379 21.3287H6.88214C6.93425 21.5435 7.12407 21.7652 7.37337 21.8153ZM7.37337 22.7746H9.18256C9.43427 22.725 9.62135 22.5032 9.67379 22.2882H6.88214C6.93425 22.5032 7.12407 22.725 7.37337 22.7746ZM7.37337 23.7604H9.18256C9.43427 23.7103 9.62135 23.4886 9.67379 23.2739H6.88214C6.93425 23.4886 7.12407 23.7103 7.37337 23.7604ZM2.66663 21.3346C2.72101 21.5468 2.90467 21.7636 3.15665 21.8179H3.91821L3.95706 21.8332V23.7549H4.43262V21.8332L4.47582 21.8179H5.23805C5.49284 21.7522 5.67255 21.5468 5.726 21.3346V21.3299H2.66663V21.3346Z" fill="#E82127"/>
<path d="M12.0003 16.533L14.3765 3.16925C16.6414 3.16925 17.3558 3.41761 17.4589 4.43135C17.4589 4.43135 18.9783 3.86483 19.7446 2.71425C16.7542 1.32857 13.7496 1.26608 13.7496 1.26608L11.9963 3.40153L12.0003 3.40127L10.247 1.26575C10.247 1.26575 7.2423 1.32831 4.25232 2.71399C5.01797 3.86457 6.53794 4.43108 6.53794 4.43108C6.64169 3.41727 7.35523 3.16891 9.60495 3.16731L12.0003 16.533Z" fill="#E82127"/>
<path d="M11.9993 0.649294C14.4166 0.630808 17.1835 1.02324 20.0159 2.25775C20.3945 1.57636 20.4918 1.27522 20.4918 1.27522C17.3955 0.0502264 14.4959 -0.369001 11.999 -0.379517C9.50214 -0.369001 6.60265 0.0502933 3.50677 1.27522C3.50677 1.27522 3.64489 1.64616 3.98233 2.25775C6.81424 1.02324 9.58158 0.630808 11.999 0.649294H11.9993Z" fill="#E82127"/>
</g>
<defs>
<clipPath id="clip0_128_2778">
<rect width="24" height="24" fill="white"/>
</clipPath>
</defs>
</svg>
