<svg width="44" height="45" viewBox="0 0 44 45" fill="none" xmlns="http://www.w3.org/2000/svg">
<g clip-path="url(#clip0_128_3127)">
<path fill-rule="evenodd" clip-rule="evenodd" d="M11.729 23.0518L21.9807 28.5722L24.0206 22.6727L21.9807 15.9295L11.729 10.4091V23.0518Z" fill="#D09561"/>
<path fill-rule="evenodd" clip-rule="evenodd" d="M13.3125 23.9045L21.9808 28.5722L24.0207 22.6727L21.9808 15.9295L13.3125 11.2618V23.9045Z" fill="#E3A76F"/>
<path fill-rule="evenodd" clip-rule="evenodd" d="M21.9807 15.9295L11.729 10.4091L9.53514 13.9533C9.22313 14.4574 9.39405 15.0992 9.91506 15.3798L18.2723 19.88C18.7933 20.1606 19.4749 19.9777 19.7869 19.4737L21.9807 15.9295Z" fill="#ECBA78"/>
<path fill-rule="evenodd" clip-rule="evenodd" d="M32.2325 23.0518L21.9807 28.5722V15.9295L32.2325 10.4091V23.0518Z" fill="#D09561"/>
<path fill-rule="evenodd" clip-rule="evenodd" d="M21.9807 15.9295L32.2325 10.4091L34.4263 13.9533C34.7383 14.4574 34.5674 15.0992 34.0464 15.3798L25.6891 19.88C25.1681 20.1606 24.4867 19.9777 24.1746 19.4737L21.9807 15.9295Z" fill="#E3A76F"/>
<path fill-rule="evenodd" clip-rule="evenodd" d="M11.729 10.4091L21.9807 15.9295L32.2325 10.4091L21.9807 4.8887L11.729 10.4091Z" fill="#E3A76F"/>
<path fill-rule="evenodd" clip-rule="evenodd" d="M21.9807 15.9295L32.2325 10.4091L21.9807 4.8887V15.9295Z" fill="#D09561"/>
<path fill-rule="evenodd" clip-rule="evenodd" d="M25.7071 1.67117L28.5329 4.82741L21.6947 12.4653L14.8564 4.82741L17.6823 1.67117H25.7071Z" fill="#ADE9FF"/>
<path fill-rule="evenodd" clip-rule="evenodd" d="M21.6946 12.4654L28.5328 4.82742H24.0039L22.6318 9.36557L21.6946 12.4654Z" fill="#83DEFF"/>
<path fill-rule="evenodd" clip-rule="evenodd" d="M21.6947 12.4654L14.8564 4.82742H19.3853L20.7575 9.36557L21.6947 12.4654Z" fill="#57CFFA"/>
<path fill-rule="evenodd" clip-rule="evenodd" d="M15.7871 4.82742H19.3852L20.7574 9.36557L21.22 10.8956L15.7871 4.82742Z" fill="#83DEFF"/>
<path fill-rule="evenodd" clip-rule="evenodd" d="M25.7071 1.67117L28.5329 4.82741H14.8564L17.6823 1.67117H25.7071Z" fill="#83DEFF"/>
<path fill-rule="evenodd" clip-rule="evenodd" d="M25.707 1.67117L28.5329 4.82741H24.004L23.2468 1.67117H25.707Z" fill="#ADE9FF"/>
<path fill-rule="evenodd" clip-rule="evenodd" d="M19.3853 4.82741H14.8564L17.6823 1.67117H20.1425L19.3853 4.82741Z" fill="#83DEFF"/>
<path fill-rule="evenodd" clip-rule="evenodd" d="M19.3852 4.82741H15.7871L18.613 1.67117H20.1424L19.3852 4.82741Z" fill="#ADE9FF"/>
<path d="M8.33423 39.1944H20.7482V43.1455H8.33423V39.1944Z" fill="#5C85DA"/>
<path d="M8.33423 39.1944H10.5429V43.1455H8.33423V39.1944Z" fill="#4677D5"/>
<path fill-rule="evenodd" clip-rule="evenodd" d="M4.87396 23.8918L5.1575 16.5358C5.22065 14.8968 2.67076 14.6661 2.4123 16.2887L1.07297 24.6985C0.807959 26.362 1.25035 27.919 2.44162 29.1103L9.28096 35.9496C9.8539 36.5226 10.1225 37.2404 10.0666 38.0487L9.98734 39.1944H19.0952L19.0326 33.9698C19.017 32.6666 18.5681 31.5449 17.6464 30.6232L15.7546 28.7313C15.1402 28.1169 14.4722 27.7312 13.6329 27.5063L12.7175 27.261L8.11145 22.655C7.3726 21.9162 6.16374 21.9162 5.42497 22.655C5.08254 22.9974 4.89887 23.4408 4.87396 23.8917V23.8918Z" fill="#F0CD9C"/>
<path fill-rule="evenodd" clip-rule="evenodd" d="M4.87395 23.8918L5.15749 16.5359C5.19191 15.6432 4.4511 15.1684 3.72756 15.1832C3.5721 15.3551 3.45949 15.5795 3.41503 15.8591L2.07562 24.2688C1.8107 25.9324 2.253 27.4894 3.44436 28.6808L10.2837 35.5201C10.8566 36.093 11.0783 36.8091 11.0694 37.6191L11.0519 39.1945H19.0951L19.0326 33.97C19.017 32.6668 18.5681 31.545 17.6464 30.6234L15.7546 28.7315C15.1401 28.1171 14.4722 27.7314 13.633 27.5065L12.7176 27.2613L8.11152 22.6552C7.37267 21.9165 6.16381 21.9165 5.42505 22.6552C5.08261 22.9977 4.89902 23.4411 4.87403 23.8919L4.87395 23.8918Z" fill="#F7D8AC"/>
<path fill-rule="evenodd" clip-rule="evenodd" d="M5.4251 25.3417L9.35206 29.2687C9.56301 29.4796 9.90511 29.4796 10.1161 29.2687C10.327 29.0577 10.327 28.7156 10.1161 28.5047L4.97804 23.3665C4.74447 24.0348 4.89338 24.81 5.4251 25.3417Z" fill="#F0CD9C"/>
<path d="M23.0686 39.1944H35.4826V43.1454H23.0686V39.1944Z" fill="#5C85DA"/>
<path d="M33.2739 39.1944H35.4826V43.1455H33.2739V39.1944Z" fill="#4677D5"/>
<path fill-rule="evenodd" clip-rule="evenodd" d="M38.9429 23.8918L38.6593 16.5358C38.5962 14.8968 41.1461 14.6661 41.4045 16.2887L42.7439 24.6985C43.0089 26.362 42.5664 27.919 41.3752 29.1103L34.5359 35.9496C33.9629 36.5226 33.6944 37.2404 33.7502 38.0487L33.8295 39.1944H24.7217L24.7842 33.9698C24.7998 32.6666 25.2487 31.5449 26.1704 30.6232L28.0623 28.7313C28.6767 28.1169 29.3446 27.7312 30.184 27.5063L31.0993 27.261L35.7054 22.655C36.4442 21.9162 37.6531 21.9162 38.3919 22.655C38.7343 22.9974 38.918 23.4408 38.9429 23.8917V23.8918Z" fill="#F0CD9C"/>
<path fill-rule="evenodd" clip-rule="evenodd" d="M38.9428 23.8919L38.6593 16.5359C38.6248 15.6432 39.3656 15.1685 40.0892 15.1833C40.2446 15.3551 40.3573 15.5796 40.4017 15.8591L41.7411 24.2689C42.006 25.9325 41.5636 27.4895 40.3724 28.6808L33.533 35.5202C32.9602 36.093 32.7384 36.8092 32.7474 37.6192L32.765 39.1946H24.7217L24.7842 33.97C24.7998 32.6668 25.2487 31.5451 26.1704 30.6234L28.0623 28.7316C28.6767 28.1171 29.3446 27.7314 30.1839 27.5065L31.0993 27.2613L35.7053 22.6553C36.4442 21.9165 37.653 21.9165 38.3918 22.6553C38.7342 22.9977 38.9178 23.4411 38.9428 23.8919Z" fill="#F7D8AC"/>
<path fill-rule="evenodd" clip-rule="evenodd" d="M38.3919 25.3417L34.4649 29.2687C34.254 29.4796 33.9119 29.4796 33.7009 29.2687C33.49 29.0577 33.49 28.7156 33.7009 28.5047L38.839 23.3666C39.0725 24.0349 38.9235 24.8101 38.3918 25.3418L38.3919 25.3417Z" fill="#F0CD9C"/>
</g>
<defs>
<clipPath id="clip0_128_3127">
<rect width="43.5167" height="43.5167" fill="white" transform="translate(0.150146 0.649994)"/>
</clipPath>
</defs>
</svg>
