<svg width="13" height="14" viewBox="0 0 13 14" fill="none" xmlns="http://www.w3.org/2000/svg">
<path fill-rule="evenodd" clip-rule="evenodd" d="M12 13.3078H1C0.447 13.3078 0 12.957 0 12.5239V4.67698C0 4.24388 0.447 3.89237 1 3.89237H2.5V4.67698H1.5C1.224 4.67698 1 4.85352 1 5.06929V12.1308C1 12.3482 1.224 12.5239 1.5 12.5239H11.5C11.775 12.5239 12 12.3482 12 12.1308V5.06929C12 4.85352 11.775 4.67698 11.5 4.67698H10.5V3.89237H12C12.552 3.89237 13 4.24388 13 4.67698V12.5239C13 12.957 12.552 13.3078 12 13.3078ZM8.66602 3.38781L7 2.08063V9.77698C7 9.99354 6.775 10.1693 6.5 10.1693C6.224 10.1693 6 9.99354 6 9.77698V2.08063L4.33301 3.38781C4.14301 3.53767 3.83294 3.53767 3.64294 3.38781C3.45294 3.23952 3.45294 2.99553 3.64294 2.84724L6.11304 0.908397C6.11604 0.905258 6.122 0.903777 6.125 0.900639C6.136 0.890439 6.13204 0.875496 6.14404 0.865296C6.16304 0.851173 6.18996 0.85588 6.20996 0.844896C6.28396 0.797819 6.36995 0.765624 6.47095 0.760132C6.47895 0.760132 6.48604 0.756205 6.49304 0.756205C6.49604 0.756205 6.49798 0.753906 6.50098 0.753906C6.50398 0.753906 6.50603 0.75542 6.50903 0.756205C6.51503 0.75542 6.51902 0.758599 6.52502 0.758599C6.64402 0.763307 6.75196 0.800147 6.83496 0.858209C6.84196 0.863701 6.85301 0.861355 6.85901 0.866063C6.86501 0.87234 6.86202 0.880989 6.86902 0.885697C6.87302 0.888836 6.87198 0.895087 6.87598 0.89901L9.35803 2.84724C9.54903 2.99553 9.54903 3.23952 9.35803 3.38781C9.16603 3.53845 8.85702 3.53845 8.66602 3.38781Z" fill="#2A2A2A"/>
</svg>
