<svg width="22" height="16" viewBox="0 0 22 16" fill="none" xmlns="http://www.w3.org/2000/svg">
<path fill-rule="evenodd" clip-rule="evenodd" d="M11.0441 15.8754C11.0441 15.8754 0.483643 7.89844 0.483643 5.06599C0.483643 2.05018 2.41489 0.591064 6.42392 0.591064C8.40401 0.591064 11.0441 3.05672 11.0441 3.05672C11.0441 3.05672 13.6842 0.591064 15.6643 0.591064C19.6734 0.591064 21.6046 2.04923 21.6046 5.06599C21.6046 7.89844 11.0441 15.8754 11.0441 15.8754ZM15.6643 1.57751C14.6228 1.57751 11.0441 4.0413 11.0441 4.0413C11.0441 4.0413 7.46412 1.57751 6.42392 1.57751C2.91519 1.57751 1.8037 2.6538 1.8037 5.1969C1.8037 7.5872 11.0441 14.3952 11.0441 14.3952C11.0441 14.3952 20.2846 7.5872 20.2846 5.1969C20.2846 2.6538 19.1731 1.57751 15.6643 1.57751Z" fill="white"/>
</svg>
