<svg width="16" height="16" viewBox="0 0 16 16" fill="none" xmlns="http://www.w3.org/2000/svg">
<path fill-rule="evenodd" clip-rule="evenodd" d="M14.3551 15.8754H1.4478C0.798918 15.8754 0.274414 15.4484 0.274414 14.9211V5.36742C0.274414 4.84011 0.798918 4.41215 1.4478 4.41215H3.20788V5.36742H2.03449C1.71064 5.36742 1.4478 5.58236 1.4478 5.84506V14.4425C1.4478 14.7071 1.71064 14.9211 2.03449 14.9211H13.7684C14.091 14.9211 14.3551 14.7071 14.3551 14.4425V5.84506C14.3551 5.58236 14.091 5.36742 13.7684 5.36742H12.595V4.41215H14.3551C15.0028 4.41215 15.5284 4.84011 15.5284 5.36742V14.9211C15.5284 15.4484 15.0028 15.8754 14.3551 15.8754ZM10.443 3.79785L8.48813 2.20635V11.5767C8.48813 11.8403 8.22411 12.0543 7.90143 12.0543C7.57758 12.0543 7.31474 11.8403 7.31474 11.5767V2.20635L5.35871 3.79785C5.13577 3.98031 4.77194 3.98031 4.549 3.79785C4.32606 3.6173 4.32606 3.32025 4.549 3.1397L7.44737 0.779157C7.45089 0.775336 7.45789 0.773533 7.46141 0.769712C7.47432 0.757293 7.46968 0.739101 7.48376 0.726682C7.50605 0.709487 7.53764 0.715218 7.5611 0.701844C7.64793 0.644528 7.74883 0.605331 7.86734 0.598644C7.87673 0.598644 7.88505 0.593863 7.89327 0.593863C7.89679 0.593863 7.89906 0.591064 7.90258 0.591064C7.9061 0.591064 7.90851 0.592908 7.91203 0.593863C7.91907 0.592908 7.92375 0.596778 7.93079 0.596778C8.07043 0.60251 8.19708 0.647363 8.29447 0.718053C8.30268 0.72474 8.31565 0.721884 8.32269 0.727615C8.32973 0.735257 8.32622 0.745789 8.33443 0.75152C8.33913 0.755341 8.3379 0.762953 8.3426 0.767729L11.255 3.1397C11.4791 3.32025 11.4791 3.6173 11.255 3.79785C11.0297 3.98126 10.6671 3.98126 10.443 3.79785Z" fill="white"/>
</svg>
