<svg width="45" height="45" viewBox="0 0 45 45" fill="none" xmlns="http://www.w3.org/2000/svg">
<g clip-path="url(#clip0_128_3166)">
<path d="M25.3449 6.08957C25.2556 6.08952 25.1672 6.10707 25.0847 6.14122C25.0022 6.17538 24.9272 6.22546 24.864 6.28861C24.8009 6.35176 24.7508 6.42673 24.7166 6.50925C24.6825 6.59177 24.6649 6.68021 24.665 6.76952V11.5292C24.6649 11.6185 24.6825 11.7069 24.7166 11.7894C24.7508 11.8719 24.8009 11.9469 24.864 12.0101C24.9272 12.0732 25.0022 12.1233 25.0847 12.1574C25.1672 12.1916 25.2556 12.2092 25.3449 12.2091C27.9001 12.2091 30.3978 12.9668 32.5224 14.3863C34.6469 15.8059 36.3027 17.8236 37.2805 20.1842C38.2584 22.5449 38.5142 25.1424 38.0157 27.6485C37.5172 30.1545 36.2868 32.4565 34.4801 34.2632C32.6733 36.07 30.3714 37.3004 27.8653 37.7989C25.3593 38.2974 22.7617 38.0415 20.401 37.0637C18.0404 36.0859 16.0227 34.43 14.6032 32.3055C13.1836 30.181 12.4259 27.6832 12.4259 25.1281C12.426 25.0388 12.4084 24.9504 12.3743 24.8678C12.3401 24.7853 12.29 24.7103 12.2269 24.6472C12.1637 24.5841 12.0888 24.534 12.0062 24.4998C11.9237 24.4657 11.8353 24.4481 11.746 24.4482H6.98634C6.89704 24.4481 6.8086 24.4657 6.72608 24.4998C6.64356 24.534 6.56858 24.5841 6.50544 24.6472C6.44229 24.7103 6.3922 24.7853 6.35805 24.8678C6.3239 24.9504 6.30635 25.0388 6.3064 25.1281C6.3064 28.8936 7.42299 32.5745 9.51497 35.7054C11.607 38.8362 14.5804 41.2764 18.0592 42.7174C21.538 44.1584 25.3661 44.5354 29.0592 43.8008C32.7523 43.0662 36.1446 41.253 38.8072 38.5904C41.4698 35.9278 43.2831 32.5355 44.0177 28.8423C44.7523 25.1492 44.3752 21.3212 42.9343 17.8424C41.4933 14.3635 39.0531 11.3901 35.9222 9.29814C32.7913 7.20616 29.1104 6.08957 25.3449 6.08957Z" fill="#FF884D"/>
<path d="M25.3449 38.0471V44.1666C20.2973 44.1611 15.458 42.1535 11.8888 38.5843C8.31955 35.015 6.31193 30.1757 6.3064 25.1281C6.30693 24.9479 6.37874 24.7753 6.50614 24.6479C6.63354 24.5205 6.80618 24.4487 6.98634 24.4482H11.746C11.9261 24.4487 12.0988 24.5205 12.2262 24.6479C12.3536 24.7753 12.4254 24.9479 12.4259 25.1281C12.429 28.5535 13.7911 31.8377 16.2132 34.2598C18.6354 36.6819 21.9196 38.044 25.3449 38.0471Z" fill="#7188EA"/>
<path d="M44.3833 25.1281H38.2638C38.2607 21.7027 36.8986 18.4185 34.4764 15.9964C32.0543 13.5743 28.7701 12.2122 25.3447 12.2091C25.1646 12.2086 24.9919 12.1368 24.8645 12.0094C24.7371 11.882 24.6653 11.7093 24.6648 11.5292V6.76952C24.6653 6.58935 24.7371 6.41671 24.8645 6.28932C24.9919 6.16192 25.1646 6.09011 25.3447 6.08957C30.3924 6.0951 35.2317 8.10272 38.8009 11.6719C42.3701 15.2412 44.3778 20.0805 44.3833 25.1281Z" fill="#F95858"/>
<path d="M32.5533 26.6294C32.4147 25.4634 32.0315 24.3397 31.4287 23.3319C30.8259 22.3242 30.0171 21.4551 29.0553 20.7815C29.8806 19.4569 31.4232 16.5435 30.4058 14.6121C30.324 14.457 30.1854 14.3395 30.019 14.2841C29.8526 14.2287 29.6713 14.2396 29.5127 14.3147C26.783 15.6101 25.8208 14.9608 25.8142 14.9614C25.7319 14.8829 25.6312 14.8263 25.5214 14.7967C25.4116 14.7671 25.2961 14.7656 25.1855 14.7922C25.0749 14.8188 24.9728 14.8728 24.8884 14.9491C24.8041 15.0254 24.7402 15.1216 24.7026 15.229L24.5791 15.5823L24.1316 14.9528C24.0428 14.8282 23.9147 14.7372 23.7678 14.6944C23.6209 14.6517 23.4639 14.6596 23.3222 14.7171C22.9996 14.8544 22.6456 14.9009 22.2986 14.8514C21.9515 14.8019 21.6246 14.6583 21.3534 14.4362C21.2779 14.3629 21.1862 14.3085 21.0856 14.2776C20.9851 14.2467 20.8786 14.24 20.775 14.2582C20.6713 14.2751 20.5729 14.3159 20.4877 14.3773C20.4024 14.4387 20.3325 14.5191 20.2837 14.6121C19.2663 16.5435 20.8089 19.4569 21.6342 20.7815C20.6724 21.4551 19.8636 22.3242 19.2608 23.332C18.658 24.3397 18.2748 25.4634 18.1362 26.6294C17.7637 28.8943 17.5692 31.4249 18.9497 33.0245C19.8912 34.1155 21.4357 34.6474 23.6568 34.6474C23.7339 34.6474 23.8115 34.6467 23.8899 34.6454H26.7883C29.1549 34.6812 30.7657 34.1534 31.7398 33.0245C33.1203 31.4249 32.9258 28.8944 32.5533 26.6294Z" fill="#FCD163"/>
<path d="M26.0246 27.2156V25.8546C26.5324 25.9428 26.6919 26.1338 26.7045 26.2184C26.7053 26.3075 26.724 26.3956 26.7595 26.4773C26.795 26.559 26.8465 26.6328 26.911 26.6943C26.9756 26.7557 27.0518 26.8035 27.1352 26.835C27.2186 26.8664 27.3074 26.8807 27.3964 26.8771C27.5768 26.8739 27.7485 26.7993 27.8737 26.6695C27.999 26.5398 28.0676 26.3656 28.0644 26.1852C28.0615 26.0212 27.9695 24.7013 26.0246 24.4816V24.4482C26.0246 24.2678 25.953 24.0949 25.8254 23.9674C25.6979 23.8399 25.525 23.7682 25.3447 23.7682C25.1643 23.7682 24.9914 23.8399 24.8639 23.9674C24.7363 24.0949 24.6647 24.2678 24.6647 24.4482V24.4973C23.3244 24.7058 22.6243 25.6045 22.6249 26.4887C22.6633 27.0124 22.8919 27.5039 23.2676 27.8708C23.6433 28.2376 24.1402 28.4544 24.6647 28.4802V29.8429C24.1501 29.7546 23.9941 29.5609 23.9848 29.4867C23.9784 29.3074 23.9027 29.1376 23.7736 29.013C23.6446 28.8885 23.4722 28.8188 23.2929 28.8187C23.1125 28.8219 22.9408 28.8966 22.8156 29.0263C22.6903 29.1561 22.6217 29.3303 22.6249 29.5106C22.6279 29.6746 22.7195 30.9793 24.6647 31.2095V31.2476C24.6647 31.428 24.7363 31.6009 24.8639 31.7284C24.9914 31.856 25.1643 31.9276 25.3447 31.9276C25.525 31.9276 25.6979 31.856 25.8254 31.7284C25.953 31.6009 26.0246 31.428 26.0246 31.2476V31.1986C27.3649 30.99 28.065 30.0913 28.0644 29.2071C28.026 28.6834 27.7974 28.1919 27.4217 27.8251C27.0459 27.4582 26.5491 27.2415 26.0246 27.2156ZM23.9848 26.488C23.9848 26.2453 24.2176 25.9991 24.6647 25.8813V27.0953C24.218 26.9773 23.9848 26.731 23.9848 26.488ZM26.0246 29.8145V28.6006C26.4714 28.7186 26.7045 28.9649 26.7045 29.2078C26.7045 29.4505 26.4717 29.6967 26.0246 29.8145Z" fill="#EFB745"/>
<path d="M30.4058 14.6121C30.324 14.457 30.1854 14.3395 30.019 14.2841C29.8526 14.2287 29.6713 14.2396 29.5128 14.3147C26.783 15.6101 25.8209 14.9608 25.8142 14.9614C25.7319 14.8829 25.6312 14.8263 25.5214 14.7967C25.4116 14.7671 25.2961 14.7656 25.1855 14.7922C25.0749 14.8189 24.9728 14.8728 24.8884 14.9491C24.8041 15.0254 24.7402 15.1216 24.7026 15.229L24.5791 15.5823L24.1316 14.9528C24.0428 14.8282 23.9147 14.7372 23.7678 14.6944C23.6209 14.6517 23.4639 14.6596 23.3222 14.7171C22.9996 14.8544 22.6456 14.9009 22.2986 14.8514C21.9515 14.8019 21.6246 14.6583 21.3534 14.4362C21.2779 14.3629 21.1862 14.3085 21.0856 14.2776C20.9851 14.2467 20.8786 14.24 20.775 14.2582C20.6713 14.2751 20.5729 14.3159 20.4877 14.3773C20.4024 14.4387 20.3325 14.5191 20.2837 14.6121C19.2663 16.5435 20.8089 19.4569 21.6342 20.7815H29.0553C29.8806 19.4569 31.4232 16.5435 30.4058 14.6121Z" fill="#EFB745"/>
<path d="M27.711 23.0067C27.6104 23.0599 27.4984 23.0879 27.3846 23.0883C27.2624 23.0879 27.1426 23.055 27.0374 22.9928C26.9322 22.9307 26.8455 22.8416 26.7863 22.7347L25.7188 20.7832H27.269L27.983 22.0819C28.0672 22.2411 28.086 22.4269 28.0351 22.5996C27.9843 22.7724 27.868 22.9185 27.711 23.0067Z" fill="#EFB745"/>
<path d="M24.9707 20.7832L23.9031 22.7347C23.8439 22.8416 23.7572 22.9307 23.6521 22.9928C23.5469 23.055 23.427 23.0879 23.3048 23.0883C23.191 23.0879 23.079 23.0599 22.9784 23.0067C22.8214 22.9185 22.7051 22.7724 22.6543 22.5996C22.6035 22.4269 22.6222 22.2411 22.7064 22.0819L23.4204 20.7832H24.9707Z" fill="#EFB745"/>
<path d="M27.6887 18.4003C27.5273 18.3198 27.3406 18.3065 27.1695 18.3636C26.9985 18.4206 26.857 18.5432 26.7763 18.7045L25.738 20.7815H27.2586L27.9928 19.3127C28.0327 19.2328 28.0566 19.1459 28.0629 19.0568C28.0692 18.9677 28.058 18.8782 28.0297 18.7935C28.0015 18.7088 27.9568 18.6305 27.8983 18.563C27.8398 18.4955 27.7686 18.4403 27.6887 18.4003Z" fill="#E29E30"/>
<path d="M23.9133 18.7045C23.8324 18.5436 23.6909 18.4214 23.52 18.3646C23.3491 18.3079 23.1627 18.3212 23.0016 18.4018C22.8406 18.4823 22.718 18.6234 22.6609 18.7942C22.6037 18.965 22.6167 19.1514 22.6968 19.3127L23.4312 20.7815H24.9518L23.9133 18.7045Z" fill="#E29E30"/>
<path d="M22.625 3.36978C17.5774 3.37544 12.7381 5.3831 9.16894 8.95229C5.59975 12.5215 3.59209 17.3607 3.58643 22.4083C3.58637 22.4976 3.60393 22.5861 3.63808 22.6686C3.67223 22.7511 3.72232 22.8261 3.78546 22.8892C3.84861 22.9524 3.92359 23.0025 4.00611 23.0366C4.08863 23.0708 4.17707 23.0883 4.26637 23.0883H11.7458C11.8351 23.0883 11.9235 23.0708 12.0061 23.0366C12.0886 23.0025 12.1636 22.9524 12.2267 22.8892C12.2899 22.8261 12.3399 22.7511 12.3741 22.6686C12.4082 22.5861 12.4258 22.4976 12.4257 22.4083C12.4287 19.7042 13.5042 17.1117 15.4163 15.1996C17.3284 13.2876 19.9209 12.2121 22.625 12.2091C22.7143 12.2092 22.8027 12.1916 22.8852 12.1575C22.9677 12.1233 23.0427 12.0732 23.1059 12.0101C23.169 11.9469 23.2191 11.8719 23.2533 11.7894C23.2874 11.7069 23.305 11.6185 23.3049 11.5292V4.04973C23.305 3.96042 23.2874 3.87198 23.2533 3.78946C23.2191 3.70695 23.169 3.63197 23.1059 3.56882C23.0427 3.50567 22.9677 3.45559 22.8852 3.42144C22.8027 3.38728 22.7143 3.36973 22.625 3.36978Z" fill="#5FDDB9"/>
<path d="M11.7459 12.889C11.6566 12.8891 11.5681 12.8716 11.4856 12.8374C11.4031 12.8032 11.3282 12.7531 11.2651 12.6898L6.02474 7.44946H1.54665C1.36631 7.44946 1.19337 7.37783 1.06585 7.25031C0.938336 7.1228 0.866699 6.94985 0.866699 6.76952C0.866699 6.58918 0.938336 6.41624 1.06585 6.28872C1.19337 6.16121 1.36631 6.08957 1.54665 6.08957H6.30628C6.39557 6.08956 6.48399 6.10715 6.56647 6.14134C6.64896 6.17552 6.7239 6.22563 6.78701 6.28879L12.2266 11.7284C12.3217 11.8235 12.3864 11.9446 12.4126 12.0765C12.4388 12.2084 12.4254 12.3451 12.3739 12.4693C12.3225 12.5935 12.2353 12.6997 12.1235 12.7744C12.0118 12.8491 11.8803 12.889 11.7459 12.889Z" fill="#42C1A0"/>
<path d="M6.15954 4.72968H1.54665C1.36631 4.72968 1.19337 4.65804 1.06585 4.53053C0.938336 4.40301 0.866699 4.23006 0.866699 4.04973C0.866699 3.8694 0.938336 3.69645 1.06585 3.56893C1.19337 3.44142 1.36631 3.36978 1.54665 3.36978H6.15954C6.33987 3.36978 6.51282 3.44142 6.64033 3.56893C6.76785 3.69645 6.83948 3.8694 6.83948 4.04973C6.83948 4.23006 6.76785 4.40301 6.64033 4.53053C6.51282 4.65804 6.33987 4.72968 6.15954 4.72968Z" fill="#42C1A0"/>
<path d="M6.15954 2.00989H1.54665C1.36631 2.00989 1.19337 1.93825 1.06585 1.81074C0.938336 1.68322 0.866699 1.51028 0.866699 1.32994C0.866699 1.14961 0.938336 0.976661 1.06585 0.849146C1.19337 0.721631 1.36631 0.649994 1.54665 0.649994H6.15954C6.33987 0.649994 6.51282 0.721631 6.64033 0.849146C6.76785 0.976661 6.83948 1.14961 6.83948 1.32994C6.83948 1.51028 6.76785 1.68322 6.64033 1.81074C6.51282 1.93825 6.33987 2.00989 6.15954 2.00989Z" fill="#42C1A0"/>
</g>
<defs>
<clipPath id="clip0_128_3166">
<rect width="43.5167" height="43.5167" fill="white" transform="translate(0.866699 0.649994)"/>
</clipPath>
</defs>
</svg>
