<svg width="26" height="24" viewBox="0 0 26 24" fill="none" xmlns="http://www.w3.org/2000/svg">
<path d="M21.1384 20V13M12.9698 20V10M4.80115 20L4.80115 16M14.4061 5.0275L19.6835 6.96567M11.7432 5.40092L6.02668 9.59983M22.2215 6.43934C22.8196 7.02513 22.8196 7.97487 22.2215 8.56066C21.6233 9.14645 20.6536 9.14645 20.0554 8.56066C19.4573 7.97487 19.4573 7.02513 20.0554 6.43934C20.6536 5.85355 21.6233 5.85355 22.2215 6.43934ZM5.88417 9.43934C6.48231 10.0251 6.48231 10.9749 5.88417 11.5607C5.28604 12.1464 4.31627 12.1464 3.71813 11.5607C3.12 10.9749 3.12 10.0251 3.71813 9.43934C4.31627 8.85355 5.28604 8.85355 5.88417 9.43934ZM14.0528 3.43934C14.6509 4.02513 14.6509 4.97487 14.0528 5.56066C13.4547 6.14645 12.4849 6.14645 11.8868 5.56066C11.2886 4.97487 11.2886 4.02513 11.8868 3.43934C12.4849 2.85355 13.4547 2.85355 14.0528 3.43934Z" stroke="black" stroke-width="2" stroke-linecap="round" stroke-linejoin="round"/>
</svg>
