<svg width="624" height="219" viewBox="0 0 624 219" fill="none" xmlns="http://www.w3.org/2000/svg">
<path opacity="0.2" d="M10.9449 202.814L1.75 218.5H621.75V18.5052L604.017 34.1911L594.822 67.2435L591.538 62.2016H579.716L571.178 34.1911L561.326 39.7932L552.131 27.4686L544.25 31.9503L539.653 23.5471L526.517 16.2644L515.352 39.7932L496.305 11.2225L488.424 27.4686L483.826 16.2644L474.631 4.5L467.407 16.2644L456.898 39.7932L450.331 44.2749L439.822 56.5995L427.343 73.4058L420.775 93.0131L414.864 114.301L401.072 110.38L395.161 99.1754L391.877 81.2487L385.309 73.4058L376.771 93.0131L372.831 107.579L364.949 93.0131L355.754 87.9712L347.873 99.1754L336.708 73.4058V46.5157H328.169C325.98 51.5576 321.602 62.0895 321.602 63.8822C321.602 65.6749 317.661 37.7391 315.691 23.5471L306.496 34.1911L297.301 27.4686L292.047 4.5L283.508 31.9503L274.314 46.5157L269.716 27.4686L258.551 49.3168H250.669L246.729 73.4058L237.534 87.9712H227.682L217.174 63.8822L210.606 37.5524L206.665 87.9712V114.301H198.784L190.903 93.0131L184.992 99.1754L182.364 116.542H173.826L161.347 126.626L158.72 141.191L151.496 143.432L144.271 176.484L138.36 166.961L133.106 137.27L120.627 126.626L110.775 143.432H103.551L96.3263 154.076L83.8475 126.626L76.6229 99.1754L66.1144 106.458L57.5763 143.432L50.3517 169.762L36.5593 182.647L30.6483 169.762L22.7669 179.285L10.9449 202.814Z" fill="url(#paint0_linear_128_2469)"/>
<path d="M1.75 218.5L10.9449 202.814L22.7669 179.285L30.6483 169.762L36.5593 182.647L50.3517 169.762L57.5763 143.432L66.1144 106.458L76.6229 99.1754L83.8475 126.626L96.3263 154.076L103.551 143.432H110.775L120.627 126.626L133.106 137.27L138.36 166.961L144.271 176.484L151.496 143.432L158.72 141.191L161.347 126.626L173.826 116.542H182.364L184.992 99.1754L190.903 93.0131L198.784 114.301H206.665V87.9712L210.606 37.5524L217.174 63.8822L227.682 87.9712H237.534L246.729 73.4058L250.669 49.3168H258.551L269.716 27.4686L274.314 46.5157L283.508 31.9503L292.047 4.5L297.301 27.4686L306.496 34.1911L315.691 23.5471C317.661 37.7391 321.602 65.6749 321.602 63.8822C321.602 62.0895 325.98 51.5576 328.169 46.5157H336.708V73.4058L347.873 99.1754L355.754 87.9712L364.949 93.0131L372.831 107.579L376.771 93.0131L385.309 73.4058L391.877 81.2487L395.161 99.1754L401.072 110.38L414.864 114.301L420.775 93.0131L427.343 73.4058L439.822 56.5995L450.33 44.2749L456.898 39.7932L467.407 16.2644L474.631 4.5L483.826 16.2644L488.424 27.4686L496.305 11.2225L515.352 39.7932L526.517 16.2644L539.653 23.5471L544.25 31.9503L552.131 27.4686L561.326 39.7932L571.178 34.1911L579.716 62.2016H591.538L594.822 67.2435L604.017 34.1911L621.75 18.5052" stroke="#6425FE" stroke-opacity="0.5" stroke-width="2"/>
<line opacity="0.5" x1="623.25" y1="45" x2="2.75" y2="44.9999" stroke="#2C2C2C" stroke-dasharray="2 2"/>
<defs>
<linearGradient id="paint0_linear_128_2469" x1="311.75" y1="4.5" x2="311.75" y2="218.5" gradientUnits="userSpaceOnUse">
<stop stop-color="#6425FE" stop-opacity="0.68"/>
<stop offset="1" stop-color="#6425FE" stop-opacity="0"/>
</linearGradient>
</defs>
</svg>
