<svg width="26" height="24" viewBox="0 0 26 24" fill="none" xmlns="http://www.w3.org/2000/svg">
<path d="M9.91402 9C10.1541 8.33167 10.6279 7.76811 11.2516 7.40913C11.8753 7.05016 12.6085 6.91894 13.3215 7.03871C14.0345 7.15849 14.6813 7.52152 15.1471 8.06353C15.613 8.60553 15.868 9.29152 15.8669 10C15.8669 12 12.8037 13 12.8037 13M12.8854 17H12.8956M23.0962 12C23.0962 17.5228 18.5246 22 12.8854 22C7.24609 22 2.67456 17.5228 2.67456 12C2.67456 6.47715 7.24609 2 12.8854 2C18.5246 2 23.0962 6.47715 23.0962 12Z" stroke="black" stroke-width="2" stroke-linecap="round" stroke-linejoin="round"/>
</svg>
