<svg width="26" height="24" viewBox="0 0 26 24" fill="none" xmlns="http://www.w3.org/2000/svg">
<path d="M12.8644 15C14.5562 15 15.9276 13.6569 15.9276 12C15.9276 10.3431 14.5562 9 12.8644 9C11.1726 9 9.80113 10.3431 9.80113 12C9.80113 13.6569 11.1726 15 12.8644 15Z" stroke="black" stroke-width="2" stroke-linecap="round" stroke-linejoin="round"/>
<path d="M19.7335 14.7273C19.6099 15.0015 19.573 15.3056 19.6276 15.6005C19.6822 15.8954 19.8258 16.1676 20.0398 16.3818L20.0955 16.4364C20.2681 16.6052 20.405 16.8057 20.4985 17.0265C20.5919 17.2472 20.64 17.4838 20.64 17.7227C20.64 17.9617 20.5919 18.1983 20.4985 18.419C20.405 18.6397 20.2681 18.8402 20.0955 19.0091C19.9231 19.1781 19.7183 19.3122 19.4929 19.4037C19.2676 19.4952 19.026 19.5423 18.782 19.5423C18.538 19.5423 18.2964 19.4952 18.0711 19.4037C17.8457 19.3122 17.6409 19.1781 17.4685 19.0091L17.4128 18.9545C17.1941 18.745 16.9162 18.6044 16.6151 18.5509C16.3139 18.4974 16.0034 18.5335 15.7234 18.6545C15.4488 18.7698 15.2147 18.9611 15.0498 19.205C14.8848 19.4489 14.7963 19.7347 14.7951 20.0273V20.1818C14.7951 20.664 14.5995 21.1265 14.2514 21.4675C13.9032 21.8084 13.431 22 12.9386 22C12.4463 22 11.974 21.8084 11.6259 21.4675C11.2777 21.1265 11.0821 20.664 11.0821 20.1818V20.1C11.0749 19.7991 10.9755 19.5073 10.7967 19.2625C10.6179 19.0176 10.368 18.8312 10.0796 18.7273C9.79963 18.6063 9.48906 18.5702 9.18793 18.6236C8.88681 18.6771 8.60895 18.8177 8.39018 19.0273L8.33449 19.0818C8.16207 19.2509 7.95731 19.385 7.73194 19.4765C7.50656 19.568 7.26498 19.6151 7.021 19.6151C6.77703 19.6151 6.53545 19.568 6.31007 19.4765C6.0847 19.385 5.87994 19.2509 5.70752 19.0818C5.53491 18.913 5.39798 18.7124 5.30455 18.4917C5.21112 18.271 5.16303 18.0344 5.16303 17.7955C5.16303 17.5565 5.21112 17.3199 5.30455 17.0992C5.39798 16.8785 5.53491 16.678 5.70752 16.5091L5.76322 16.4545C5.97722 16.2403 6.12077 15.9682 6.17537 15.6733C6.22997 15.3784 6.19311 15.0742 6.06954 14.8C5.95187 14.5311 5.75649 14.3018 5.50745 14.1403C5.25841 13.9788 4.96658 13.8921 4.66788 13.8909H4.51007C4.0177 13.8909 3.54549 13.6994 3.19732 13.3584C2.84916 13.0174 2.65356 12.5549 2.65356 12.0727C2.65356 11.5905 2.84916 11.1281 3.19732 10.7871C3.54549 10.4461 4.0177 10.2545 4.51007 10.2545H4.59362C4.90086 10.2475 5.19884 10.1501 5.44882 9.97501C5.69879 9.79991 5.8892 9.55521 5.99528 9.27273C6.11885 8.99853 6.15571 8.69437 6.10111 8.39947C6.04651 8.10456 5.90296 7.83244 5.68896 7.61818L5.63326 7.56364C5.46065 7.39478 5.32372 7.19425 5.23029 6.97353C5.13686 6.7528 5.08877 6.51621 5.08877 6.27727C5.08877 6.03834 5.13686 5.80174 5.23029 5.58102C5.32372 5.36029 5.46065 5.15977 5.63326 4.99091C5.80568 4.82186 6.01044 4.68775 6.23581 4.59626C6.46119 4.50476 6.70277 4.45766 6.94674 4.45766C7.19072 4.45766 7.4323 4.50476 7.65768 4.59626C7.88305 4.68775 8.08781 4.82186 8.26023 4.99091L8.31592 5.04545C8.53469 5.25503 8.81255 5.39562 9.11367 5.4491C9.41479 5.50257 9.72537 5.46647 10.0053 5.34545H10.0796C10.3542 5.23022 10.5883 5.03887 10.7532 4.79497C10.9182 4.55107 11.0067 4.26526 11.0079 3.97273V3.81818C11.0079 3.33597 11.2035 2.87351 11.5516 2.53253C11.8998 2.19156 12.372 2 12.8644 2C13.3567 2 13.829 2.19156 14.1771 2.53253C14.5253 2.87351 14.7209 3.33597 14.7209 3.81818V3.9C14.7221 4.19253 14.8106 4.47834 14.9755 4.72224C15.1404 4.96614 15.3746 5.15749 15.6491 5.27273C15.9291 5.39374 16.2397 5.42984 16.5408 5.37637C16.8419 5.3229 17.1198 5.18231 17.3386 4.97273L17.3943 4.91818C17.5667 4.74913 17.7714 4.61503 17.9968 4.52353C18.2222 4.43203 18.4638 4.38493 18.7077 4.38493C18.9517 4.38493 19.1933 4.43203 19.4187 4.52353C19.644 4.61503 19.8488 4.74913 20.0212 4.91818C20.1938 5.08704 20.3308 5.28757 20.4242 5.50829C20.5176 5.72901 20.5657 5.96561 20.5657 6.20455C20.5657 6.44348 20.5176 6.68008 20.4242 6.9008C20.3308 7.12152 20.1938 7.32205 20.0212 7.49091L19.9655 7.54545C19.7515 7.75971 19.608 8.03183 19.5534 8.32674C19.4988 8.62164 19.5356 8.9258 19.6592 9.2V9.27273C19.7769 9.54161 19.9722 9.77093 20.2213 9.93245C20.4703 10.094 20.7622 10.1807 21.0609 10.1818H21.2187C21.711 10.1818 22.1833 10.3734 22.5314 10.7144C22.8796 11.0553 23.0752 11.5178 23.0752 12C23.0752 12.4822 22.8796 12.9447 22.5314 13.2856C22.1833 13.6266 21.711 13.8182 21.2187 13.8182H21.1351C20.8364 13.8193 20.5446 13.906 20.2955 14.0676C20.0465 14.2291 19.8511 14.4584 19.7335 14.7273Z" stroke="black" stroke-width="2" stroke-linecap="round" stroke-linejoin="round"/>
</svg>
