<svg width="99" height="44" viewBox="0 0 99 44" fill="none" xmlns="http://www.w3.org/2000/svg">
<path d="M9.97984 33.9219C11.5186 33.9219 12.8799 33.6466 14.0635 33.096C15.2472 32.5163 16.1498 31.6469 16.7712 30.4876V33.4003H22.9855V9.66471H16.3273V23.5322C16.3273 24.8943 15.913 25.9956 15.0845 26.836C14.2559 27.6475 13.1906 28.0532 11.8885 28.0532C10.5865 28.0532 9.52116 27.6475 8.69258 26.836C7.86401 25.9956 7.44972 24.8943 7.44972 23.5322V9.66471H0.791504V24.0538C0.791504 27.0099 1.57569 29.4009 3.14407 31.2267C4.74204 33.0235 7.02063 33.9219 9.97984 33.9219Z" fill="black"/>
<path d="M27.8519 7.5346H34.5101V1.01385H27.8519V7.5346ZM27.8519 33.4003H34.5101V9.66471H27.8519V33.4003Z" fill="black"/>
<path d="M42.312 33.4003H48.9703V15.316H54.1637V9.66471H48.9703V9.31694C48.9703 7.20132 50.2279 6.14351 52.7433 6.14351C53.1575 6.14351 53.6458 6.18698 54.2081 6.27392V0.709546C53.5274 0.56464 52.7433 0.492188 51.8555 0.492188C48.8371 0.492188 46.4845 1.26019 44.7978 2.79619C43.1406 4.33219 42.312 6.50577 42.312 9.31694V9.66471H38.2283V15.316H42.312V33.4003Z" fill="black"/>
<path d="M57.5885 33.4003H64.2467V20.6196C64.2467 18.8517 64.7498 17.4896 65.7559 16.5332C66.762 15.5479 68.0789 15.0552 69.7064 15.0552H71.7927V9.40388H70.3723C68.8926 9.40388 67.5758 9.6792 66.4217 10.2298C65.2972 10.7515 64.4242 11.7514 63.8028 13.2294V9.66471H57.5885V33.4003Z" fill="black"/>
<path d="M78.4838 43.051C82.9226 43.051 86.1334 40.5731 88.116 35.6173L98.5029 9.66471H91.3564L85.6303 24.9233L79.9042 9.66471H72.7578L82.3012 33.4003L81.8573 34.4001C81.5022 35.1826 81.0435 35.8781 80.4813 36.4867C79.919 37.0953 78.9869 37.3996 77.6848 37.3996C76.6195 37.3996 75.6134 37.2547 74.6665 36.9649V42.3119C75.1695 42.5728 75.7466 42.7612 76.3976 42.8771C77.0782 42.993 77.7736 43.051 78.4838 43.051Z" fill="black"/>
</svg>
