<svg width="30" height="9" viewBox="0 0 30 9" fill="none" xmlns="http://www.w3.org/2000/svg">
<path fill-rule="evenodd" clip-rule="evenodd" d="M14.8203 8.33735C14.8203 8.33735 0.00366211 4.00554 0.00366211 2.46741C0.00366211 0.829711 2.71326 0.0373535 8.33804 0.0373535C11.1162 0.0373535 14.8203 1.3763 14.8203 1.3763C14.8203 1.3763 18.5245 0.0373535 21.3026 0.0373535C26.9274 0.0373535 29.637 0.829192 29.637 2.46741C29.637 4.00554 14.8203 8.33735 14.8203 8.33735ZM21.3026 0.573033C19.8413 0.573033 14.8203 1.91097 14.8203 1.91097C14.8203 1.91097 9.79748 0.573033 8.33804 0.573033C3.4152 0.573033 1.85575 1.1575 1.85575 2.5385C1.85575 3.83653 14.8203 7.53352 14.8203 7.53352C14.8203 7.53352 27.7849 3.83653 27.7849 2.5385C27.7849 1.1575 26.2255 0.573033 21.3026 0.573033Z" fill="#2A2A2A"/>
</svg>
