<svg width="19" height="17" viewBox="0 0 19 17" fill="none" xmlns="http://www.w3.org/2000/svg">
<path fill-rule="evenodd" clip-rule="evenodd" d="M18.7851 6.85188L14.3803 10.4457L16.0347 15.4398C16.0499 15.4837 16.0453 15.5268 16.0453 15.5707C16.0464 15.5831 16.0487 15.5917 16.0475 15.6031C16.037 15.7159 15.9773 15.8162 15.8834 15.8984C15.8764 15.9032 15.8798 15.9098 15.8728 15.9146C15.8693 15.9175 15.8646 15.9156 15.8599 15.9194C15.7883 15.9748 15.7062 16.0207 15.6029 16.0436C15.549 16.055 15.4961 16.0521 15.4421 16.0512L15.4409 16.0521C15.2943 16.0502 15.1629 16.0081 15.0549 15.9327C15.042 15.925 15.0255 15.9289 15.0138 15.9203L9.60337 12.7861L4.19292 15.9203C4.18119 15.9289 4.16355 15.925 4.15181 15.9327C4.04386 16.0081 3.91129 16.0502 3.76579 16.0521L3.76465 16.0512C3.71067 16.0521 3.65662 16.055 3.60265 16.0436C3.50056 16.0216 3.41841 15.9748 3.34683 15.9194C3.34214 15.9156 3.33631 15.9175 3.33279 15.9146C3.32693 15.9098 3.32921 15.9032 3.32334 15.8984C3.22947 15.8162 3.16961 15.7168 3.15905 15.6031C3.15787 15.5917 3.16031 15.5831 3.16148 15.5707C3.16031 15.5277 3.15683 15.4837 3.17208 15.4398L4.82645 10.4457L0.421669 6.85188C0.306677 6.764 0.233887 6.64274 0.233887 6.50613C0.233887 6.49945 0.238613 6.49279 0.238613 6.48514C0.245654 6.3686 0.300781 6.26442 0.392305 6.18417C0.398172 6.17844 0.395749 6.16982 0.401616 6.16505C0.407483 6.15932 0.418066 6.16225 0.425106 6.15747C0.523671 6.08296 0.652791 6.0361 0.795944 6.03036C0.804158 6.03036 0.811221 6.02652 0.819434 6.02652H5.7582L9.09646 1.00084C9.1035 0.991289 9.11405 0.987494 9.12109 0.979852C9.14221 0.955015 9.16916 0.933001 9.19615 0.911985C9.22548 0.889059 9.25253 0.867143 9.28538 0.849948C9.29477 0.845172 9.30063 0.836533 9.31002 0.831757C9.33231 0.821249 9.35574 0.821325 9.3792 0.813683C9.41558 0.800309 9.45315 0.789817 9.49422 0.783131C9.5306 0.776444 9.56696 0.776367 9.60451 0.776367C9.64089 0.776367 9.67843 0.776444 9.7148 0.783131C9.7547 0.789817 9.7911 0.801264 9.82982 0.813683C9.85329 0.821325 9.87554 0.821249 9.89901 0.831757C9.90839 0.836533 9.91426 0.845172 9.92364 0.849948C9.9565 0.868098 9.98357 0.889059 10.0117 0.911985C10.0399 0.933001 10.068 0.955015 10.0879 0.979852C10.095 0.987494 10.1056 0.992245 10.1114 1.00084L13.4497 6.02652H18.3884H18.3897C18.3968 6.02652 18.4037 6.03036 18.4119 6.03036C18.5563 6.0361 18.6854 6.08296 18.7839 6.15747C18.791 6.16225 18.8004 6.15932 18.8074 6.16505C18.8133 6.16982 18.8098 6.17844 18.8169 6.18417C18.9072 6.26442 18.9635 6.3686 18.9706 6.48514C18.9706 6.49279 18.9751 6.49851 18.9751 6.5052C18.9728 6.64276 18.8989 6.76495 18.7851 6.85188Z" fill="#2A2A2A"/>
</svg>
