<svg width="22" height="9" viewBox="0 0 22 9" fill="none" xmlns="http://www.w3.org/2000/svg">
<path fill-rule="evenodd" clip-rule="evenodd" d="M20.3185 8.33735H2.20928C1.29888 8.33735 0.562988 8.10546 0.562988 7.81911V2.6311C0.562988 2.34475 1.29888 2.11235 2.20928 2.11235H4.67873V2.6311H3.03243C2.57805 2.6311 2.20928 2.74782 2.20928 2.89048V7.55923C2.20928 7.70292 2.57805 7.81911 3.03243 7.81911H19.4954C19.9481 7.81911 20.3185 7.70292 20.3185 7.55923V2.89048C20.3185 2.74782 19.9481 2.6311 19.4954 2.6311H17.8491V2.11235H20.3185C21.2273 2.11235 21.9648 2.34475 21.9648 2.6311V7.81911C21.9648 8.10546 21.2273 8.33735 20.3185 8.33735ZM14.8298 1.77876L12.0871 0.914517V6.00298C12.0871 6.14615 11.7166 6.26235 11.2639 6.26235C10.8095 6.26235 10.4408 6.14615 10.4408 6.00298V0.914517L7.6964 1.77876C7.38361 1.87784 6.87315 1.87784 6.56035 1.77876C6.24756 1.68072 6.24756 1.51941 6.56035 1.42136L10.6269 0.139495C10.6318 0.13742 10.6416 0.136441 10.6466 0.134366C10.6647 0.127622 10.6581 0.117743 10.6779 0.110999C10.7092 0.101662 10.7535 0.104774 10.7864 0.0975113C10.9082 0.0663863 11.0498 0.0451008 11.2161 0.0414696C11.2293 0.0414696 11.2409 0.0388733 11.2525 0.0388733C11.2574 0.0388733 11.2606 0.0373535 11.2655 0.0373535C11.2705 0.0373535 11.2738 0.0383545 11.2788 0.0388733C11.2887 0.0383545 11.2952 0.0404564 11.3051 0.0404564C11.501 0.0435689 11.6787 0.0679258 11.8154 0.106313C11.8269 0.109945 11.8451 0.108393 11.8549 0.111506C11.8648 0.115656 11.8599 0.121375 11.8714 0.124487C11.878 0.126562 11.8763 0.130696 11.8829 0.133289L15.9691 1.42136C16.2835 1.51941 16.2835 1.68072 15.9691 1.77876C15.653 1.87836 15.1443 1.87836 14.8298 1.77876Z" fill="#2A2A2A"/>
</svg>
