<svg width="26" height="24" viewBox="0 0 26 24" fill="none" xmlns="http://www.w3.org/2000/svg">
<path d="M17.0118 7.99995V4.5006C17.0118 3.66887 17.0118 3.253 16.8329 2.99742C16.6766 2.77413 16.4346 2.62245 16.1621 2.57703C15.8501 2.52505 15.4646 2.69932 14.6935 3.04787L5.636 7.14194C4.94829 7.45279 4.60444 7.60822 4.35259 7.84927C4.12995 8.06237 3.96 8.3225 3.85573 8.60978C3.73779 8.93474 3.73779 9.30563 3.73779 10.0474V14.9999M17.5224 14.4999H17.5326M3.73779 11.2L3.73779 17.7999C3.73779 18.9201 3.73779 19.4801 3.96038 19.9079C4.15616 20.2843 4.46857 20.5902 4.85283 20.782C5.28967 20.9999 5.86153 20.9999 7.00525 20.9999H18.8498C19.9935 20.9999 20.5654 21 21.0022 20.782C21.3865 20.5902 21.6989 20.2843 21.8947 19.9079C22.1172 19.4801 22.1172 18.9201 22.1172 17.7999V11.2C22.1172 10.0798 22.1172 9.51979 21.8947 9.09197C21.6989 8.71565 21.3865 8.40969 21.0022 8.21794C20.5654 7.99995 19.9935 7.99995 18.8498 7.99995L7.00525 7.99995C5.86153 7.99995 5.28967 7.99995 4.85283 8.21794C4.46858 8.40968 4.15616 8.71564 3.96038 9.09197C3.73779 9.51979 3.73779 10.0798 3.73779 11.2ZM18.0329 14.4999C18.0329 14.7761 17.8043 14.9999 17.5224 14.9999C17.2404 14.9999 17.0118 14.7761 17.0118 14.4999C17.0118 14.2238 17.2404 13.9999 17.5224 13.9999C17.8043 13.9999 18.0329 14.2238 18.0329 14.4999Z" stroke="black" stroke-width="2" stroke-linecap="round" stroke-linejoin="round"/>
</svg>
